<svg xmlns="http://www.w3.org/2000/svg" xmlns:xlink="http://www.w3.org/1999/xlink" width="322" zoomAndPan="magnify" viewBox="0 0 241.5 233.249991" height="311" preserveAspectRatio="xMidYMid meet" version="1.0"><defs><g/><clipPath id="d9a35eee5d"><path d="M 59.597656 11 L 107 11 L 107 153 L 59.597656 153 Z M 59.597656 11 " clip-rule="nonzero"/></clipPath><clipPath id="fe1b6a64d6"><path d="M 17 166.007812 L 223.78125 166.007812 L 223.78125 189.183594 L 17 189.183594 Z M 17 166.007812 " clip-rule="nonzero"/></clipPath></defs><g clip-path="url(#d9a35eee5d)"><path fill="#000000" d="M 99.363281 68.507812 L 106.117188 68.507812 C 90.753906 49.53125 75.511719 30.703125 60.273438 11.875 C 59.679688 14.605469 59.679688 17.109375 59.679688 19.609375 C 59.667969 57.828125 59.65625 96.050781 59.640625 134.269531 C 59.640625 140.394531 59.65625 146.515625 59.636719 152.640625 L 64.769531 152.640625 C 64.765625 151.34375 64.886719 150.050781 64.886719 148.753906 C 64.824219 129.203125 64.722656 109.65625 64.6875 90.105469 C 64.648438 70.8125 64.675781 51.519531 64.699219 32.226562 C 64.699219 30.554688 64.863281 28.875 64.992188 26.351562 C 66.203125 27.675781 66.878906 28.335938 67.472656 29.066406 C 77.660156 41.644531 87.972656 54.121094 97.921875 66.878906 C 98.398438 67.484375 98.875 68.03125 99.363281 68.507812 Z M 99.363281 68.507812 " fill-opacity="1" fill-rule="nonzero"/></g><path fill="#000000" d="M 185.078125 84.339844 C 185.074219 84.980469 185.070312 85.621094 184.996094 86.246094 C 183.960938 95.761719 181.558594 104.917969 176.515625 113.085938 C 176.367188 113.328125 176.230469 113.574219 176.105469 113.8125 L 176.105469 124.882812 C 185.0625 115.898438 194.132812 86.78125 190.789062 76.660156 C 189.785156 76.660156 188.699219 76.660156 187.621094 76.660156 C 156.285156 76.660156 124.953125 76.652344 93.617188 76.652344 C 92.726562 76.652344 91.984375 76.652344 91.371094 76.679688 L 91.371094 83.023438 L 184.980469 83.023438 C 185.03125 83.636719 185.085938 83.984375 185.078125 84.339844 Z M 185.078125 84.339844 " fill-opacity="1" fill-rule="nonzero"/><path fill="#000000" d="M 164.546875 91.734375 C 164.546875 91.75 164.546875 91.765625 164.546875 91.789062 C 164.597656 106.34375 164.597656 120.898438 164.539062 135.457031 C 164.53125 136.40625 163.90625 137.355469 163.566406 138.308594 C 162.804688 137.78125 161.859375 137.40625 161.304688 136.71875 C 149.277344 121.898438 137.292969 107.046875 125.3125 92.191406 C 125.179688 92.035156 125.054688 91.882812 124.9375 91.734375 L 118.164062 91.734375 C 135.261719 112.847656 152.265625 133.84375 169.605469 155.257812 C 169.707031 154.394531 169.777344 154.050781 169.777344 153.703125 C 169.808594 133.050781 169.804688 112.398438 169.902344 91.75 C 169.902344 91.746094 169.902344 91.738281 169.902344 91.734375 Z M 164.546875 91.734375 " fill-opacity="1" fill-rule="nonzero"/><path fill="#000000" d="M 150.609375 140.023438 C 122.449219 153.738281 96.253906 151.597656 71.515625 132.746094 L 71.515625 140.160156 C 72.238281 140.992188 73.191406 141.71875 74.292969 142.421875 C 92.316406 153.917969 111.71875 157.738281 132.640625 153.203125 C 140.207031 151.5625 147.34375 148.738281 154.207031 144.636719 C 152.910156 142.972656 151.753906 141.492188 150.609375 140.023438 Z M 150.609375 140.023438 " fill-opacity="1" fill-rule="nonzero"/><path fill="#000000" d="M 156.402344 16.167969 C 155.808594 15.429688 154.957031 14.8125 153.890625 14.246094 C 127.183594 0.015625 100.910156 0.617188 75.035156 16.378906 C 74.292969 16.835938 73.644531 17.433594 72.796875 18.097656 C 74.257812 19.707031 75.515625 21.101562 76.683594 22.398438 C 103.476562 6.027344 129.824219 6.207031 156.402344 23.046875 Z M 156.402344 16.167969 " fill-opacity="1" fill-rule="nonzero"/><path fill="#000000" d="M 164.554688 15.894531 C 164.613281 33.410156 164.585938 50.929688 164.597656 68.453125 C 164.597656 68.550781 164.609375 68.648438 164.609375 68.746094 L 169.75 68.746094 C 169.761719 68.566406 169.769531 68.378906 169.769531 68.199219 C 169.78125 50.765625 169.761719 33.328125 169.8125 15.894531 Z M 164.554688 15.894531 " fill-opacity="1" fill-rule="nonzero"/><path fill="#000000" d="M 174.21875 31.785156 C 174.21875 31.789062 174.21875 31.789062 174.21875 31.792969 L 174.21875 40.789062 C 174.890625 43.324219 176.09375 45.6875 177.597656 47.96875 L 184.429688 47.96875 C 181.738281 41.980469 178.457031 36.695312 174.21875 31.785156 Z M 174.21875 31.785156 " fill-opacity="1" fill-rule="nonzero"/><g fill="#000000" fill-opacity="1"><g transform="translate(33.685539, 219.41309)"><g><path d="M 13.328125 -15.90625 L 15.796875 -15.90625 L 15.796875 0 L 13.546875 0 L 4.296875 -12.125 C 4.390625 -11.207031 4.476562 -10.289062 4.5625 -9.375 C 4.644531 -8.457031 4.6875 -7.535156 4.6875 -6.609375 L 4.6875 0 L 2.21875 0 L 2.21875 -15.90625 L 4.4375 -15.90625 L 13.671875 -3.515625 C 13.535156 -4.628906 13.441406 -5.820312 13.390625 -7.09375 C 13.347656 -8.375 13.328125 -9.566406 13.328125 -10.671875 Z M 13.328125 -15.90625 "/></g></g></g><g fill="#000000" fill-opacity="1"><g transform="translate(55.874409, 219.41309)"><g><path d="M 9.765625 -4.75 L 9.765625 -11.921875 L 12.109375 -11.921875 L 12.109375 0 L 9.765625 0 L 9.765625 -1.90625 C 9.421875 -1.34375 8.910156 -0.84375 8.234375 -0.40625 C 7.554688 0.0195312 6.75 0.234375 5.8125 0.234375 C 4.570312 0.234375 3.566406 -0.1875 2.796875 -1.03125 C 2.023438 -1.882812 1.640625 -3.0625 1.640625 -4.5625 L 1.640625 -11.921875 L 3.96875 -11.921875 L 3.96875 -5.203125 C 3.96875 -4.597656 4.0625 -4.035156 4.25 -3.515625 C 4.445312 -3.003906 4.753906 -2.59375 5.171875 -2.28125 C 5.585938 -1.96875 6.117188 -1.8125 6.765625 -1.8125 C 7.585938 -1.8125 8.289062 -2.066406 8.875 -2.578125 C 9.46875 -3.097656 9.765625 -3.820312 9.765625 -4.75 Z M 9.765625 -4.75 "/></g></g></g><g fill="#000000" fill-opacity="1"><g transform="translate(73.794135, 219.41309)"><g><path d="M 5.453125 0 L 3.109375 0 L 3.109375 -9.65625 L 0.640625 -9.65625 L 0.640625 -11.921875 L 3.109375 -11.921875 L 3.109375 -14.96875 L 5.453125 -14.96875 L 5.453125 -11.921875 L 8.21875 -11.921875 L 8.21875 -9.65625 L 5.453125 -9.65625 Z M 5.453125 0 "/></g></g></g><g fill="#000000" fill-opacity="1"><g transform="translate(86.695342, 219.41309)"><g><path d="M 8.3125 -9.40625 C 8.164062 -9.476562 7.976562 -9.539062 7.75 -9.59375 C 7.53125 -9.644531 7.300781 -9.671875 7.0625 -9.671875 C 6.582031 -9.671875 6.109375 -9.546875 5.640625 -9.296875 C 5.171875 -9.046875 4.78125 -8.691406 4.46875 -8.234375 C 4.15625 -7.773438 4 -7.226562 4 -6.59375 L 4 0 L 1.640625 0 L 1.640625 -11.921875 L 4 -11.921875 L 4 -9.671875 C 4.332031 -10.398438 4.832031 -11 5.5 -11.46875 C 6.175781 -11.9375 6.890625 -12.171875 7.640625 -12.171875 C 8.191406 -12.171875 8.617188 -12.097656 8.921875 -11.953125 Z M 8.3125 -9.40625 "/></g></g></g><g fill="#000000" fill-opacity="1"><g transform="translate(100.028, 219.41309)"><g><path d="M 3.203125 -14.515625 C 2.671875 -14.515625 2.273438 -14.648438 2.015625 -14.921875 C 1.765625 -15.191406 1.640625 -15.546875 1.640625 -15.984375 C 1.640625 -16.367188 1.765625 -16.710938 2.015625 -17.015625 C 2.273438 -17.316406 2.671875 -17.46875 3.203125 -17.46875 C 3.734375 -17.46875 4.125 -17.328125 4.375 -17.046875 C 4.632812 -16.773438 4.765625 -16.421875 4.765625 -15.984375 C 4.765625 -15.609375 4.632812 -15.269531 4.375 -14.96875 C 4.125 -14.664062 3.734375 -14.515625 3.203125 -14.515625 Z M 4.40625 0 L 2.078125 0 L 2.078125 -11.921875 L 4.40625 -11.921875 Z M 4.40625 0 "/></g></g></g><g fill="#000000" fill-opacity="1"><g transform="translate(110.522129, 219.41309)"><g><path d="M 9.3125 -16.046875 C 10.21875 -16.046875 11.054688 -15.914062 11.828125 -15.65625 C 12.609375 -15.394531 13.289062 -15.0625 13.875 -14.65625 C 14.46875 -14.25 14.929688 -13.804688 15.265625 -13.328125 L 13.671875 -11.671875 C 13.066406 -12.253906 12.398438 -12.726562 11.671875 -13.09375 C 10.953125 -13.46875 10.164062 -13.65625 9.3125 -13.65625 C 8.238281 -13.65625 7.265625 -13.40625 6.390625 -12.90625 C 5.523438 -12.40625 4.84375 -11.726562 4.34375 -10.875 C 3.84375 -10.019531 3.59375 -9.046875 3.59375 -7.953125 C 3.59375 -6.878906 3.859375 -5.898438 4.390625 -5.015625 C 4.921875 -4.140625 5.628906 -3.441406 6.515625 -2.921875 C 7.398438 -2.410156 8.363281 -2.15625 9.40625 -2.15625 C 10.164062 -2.15625 10.878906 -2.300781 11.546875 -2.59375 C 12.210938 -2.894531 12.753906 -3.300781 13.171875 -3.8125 C 13.585938 -4.332031 13.796875 -4.925781 13.796875 -5.59375 C 13.796875 -5.664062 13.796875 -5.707031 13.796875 -5.71875 L 9.265625 -5.71875 L 9.265625 -8.15625 L 16.3125 -8.15625 C 16.34375 -7.925781 16.367188 -7.695312 16.390625 -7.46875 C 16.410156 -7.25 16.421875 -7.023438 16.421875 -6.796875 C 16.421875 -5.960938 16.296875 -5.144531 16.046875 -4.34375 C 15.796875 -3.539062 15.40625 -2.84375 14.875 -2.25 C 14.269531 -1.488281 13.488281 -0.882812 12.53125 -0.4375 C 11.570312 0.0078125 10.507812 0.234375 9.34375 0.234375 C 8.1875 0.234375 7.109375 0.0234375 6.109375 -0.390625 C 5.109375 -0.804688 4.226562 -1.382812 3.46875 -2.125 C 2.71875 -2.875 2.132812 -3.742188 1.71875 -4.734375 C 1.300781 -5.722656 1.09375 -6.796875 1.09375 -7.953125 C 1.09375 -9.097656 1.300781 -10.160156 1.71875 -11.140625 C 2.132812 -12.117188 2.71875 -12.972656 3.46875 -13.703125 C 4.21875 -14.441406 5.09375 -15.015625 6.09375 -15.421875 C 7.09375 -15.835938 8.164062 -16.046875 9.3125 -16.046875 Z M 9.3125 -16.046875 "/></g></g></g><g fill="#000000" fill-opacity="1"><g transform="translate(132.097885, 219.41309)"><g><path d="M 11.875 -1.5625 L 11.859375 -1.5625 C 11.367188 -1.09375 10.703125 -0.675781 9.859375 -0.3125 C 9.015625 0.0507812 8.128906 0.234375 7.203125 0.234375 C 5.960938 0.234375 4.867188 -0.0234375 3.921875 -0.546875 C 2.972656 -1.078125 2.234375 -1.800781 1.703125 -2.71875 C 1.171875 -3.632812 0.90625 -4.675781 0.90625 -5.84375 C 0.90625 -7.175781 1.1875 -8.3125 1.75 -9.25 C 2.3125 -10.195312 3.050781 -10.925781 3.96875 -11.4375 C 4.894531 -11.945312 5.90625 -12.203125 7 -12.203125 C 8 -12.203125 8.90625 -11.953125 9.71875 -11.453125 C 10.539062 -10.960938 11.191406 -10.285156 11.671875 -9.421875 C 12.160156 -8.566406 12.40625 -7.5625 12.40625 -6.40625 L 12.375 -5.40625 L 3.25 -5.40625 C 3.382812 -4.332031 3.828125 -3.476562 4.578125 -2.84375 C 5.328125 -2.21875 6.273438 -1.90625 7.421875 -1.90625 C 8.253906 -1.90625 8.925781 -2.0625 9.4375 -2.375 C 9.957031 -2.6875 10.382812 -2.984375 10.71875 -3.265625 Z M 7 -10.046875 C 6.101562 -10.046875 5.320312 -9.835938 4.65625 -9.421875 C 3.988281 -9.003906 3.550781 -8.285156 3.34375 -7.265625 L 10.015625 -7.265625 L 10.015625 -7.421875 C 9.972656 -7.941406 9.800781 -8.394531 9.5 -8.78125 C 9.207031 -9.175781 8.84375 -9.484375 8.40625 -9.703125 C 7.96875 -9.929688 7.5 -10.046875 7 -10.046875 Z M 7 -10.046875 "/></g></g></g><g fill="#000000" fill-opacity="1"><g transform="translate(149.586166, 219.41309)"><g><path d="M 7.890625 -12.171875 C 8.960938 -12.171875 9.789062 -11.953125 10.375 -11.515625 C 10.96875 -11.078125 11.378906 -10.488281 11.609375 -9.75 C 11.847656 -9.007812 11.96875 -8.179688 11.96875 -7.265625 L 11.96875 0 L 9.625 0 L 9.625 -7.109375 C 9.625 -7.679688 9.546875 -8.195312 9.390625 -8.65625 C 9.242188 -9.113281 8.988281 -9.46875 8.625 -9.71875 C 8.269531 -9.976562 7.765625 -10.085938 7.109375 -10.046875 C 6.503906 -10.046875 5.96875 -9.914062 5.5 -9.65625 C 5.03125 -9.394531 4.65625 -9.050781 4.375 -8.625 C 4.101562 -8.207031 3.96875 -7.738281 3.96875 -7.21875 L 3.96875 0 L 1.640625 0 L 1.640625 -11.921875 L 3.96875 -11.921875 L 3.96875 -10.046875 C 4.332031 -10.597656 4.863281 -11.085938 5.5625 -11.515625 C 6.257812 -11.953125 7.035156 -12.171875 7.890625 -12.171875 Z M 7.890625 -12.171875 "/></g></g></g><g fill="#000000" fill-opacity="1"><g transform="translate(167.278811, 219.41309)"><g><path d="M 3.203125 -14.515625 C 2.671875 -14.515625 2.273438 -14.648438 2.015625 -14.921875 C 1.765625 -15.191406 1.640625 -15.546875 1.640625 -15.984375 C 1.640625 -16.367188 1.765625 -16.710938 2.015625 -17.015625 C 2.273438 -17.316406 2.671875 -17.46875 3.203125 -17.46875 C 3.734375 -17.46875 4.125 -17.328125 4.375 -17.046875 C 4.632812 -16.773438 4.765625 -16.421875 4.765625 -15.984375 C 4.765625 -15.609375 4.632812 -15.269531 4.375 -14.96875 C 4.125 -14.664062 3.734375 -14.515625 3.203125 -14.515625 Z M 4.40625 0 L 2.078125 0 L 2.078125 -11.921875 L 4.40625 -11.921875 Z M 4.40625 0 "/></g></g></g><g fill="#000000" fill-opacity="1"><g transform="translate(177.772945, 219.41309)"><g><path d="M 9.765625 -4.75 L 9.765625 -11.921875 L 12.109375 -11.921875 L 12.109375 0 L 9.765625 0 L 9.765625 -1.90625 C 9.421875 -1.34375 8.910156 -0.84375 8.234375 -0.40625 C 7.554688 0.0195312 6.75 0.234375 5.8125 0.234375 C 4.570312 0.234375 3.566406 -0.1875 2.796875 -1.03125 C 2.023438 -1.882812 1.640625 -3.0625 1.640625 -4.5625 L 1.640625 -11.921875 L 3.96875 -11.921875 L 3.96875 -5.203125 C 3.96875 -4.597656 4.0625 -4.035156 4.25 -3.515625 C 4.445312 -3.003906 4.753906 -2.59375 5.171875 -2.28125 C 5.585938 -1.96875 6.117188 -1.8125 6.765625 -1.8125 C 7.585938 -1.8125 8.289062 -2.066406 8.875 -2.578125 C 9.46875 -3.097656 9.765625 -3.820312 9.765625 -4.75 Z M 9.765625 -4.75 "/></g></g></g><g fill="#000000" fill-opacity="1"><g transform="translate(195.692666, 219.41309)"><g><path d="M 8.515625 -8.796875 C 8.097656 -9.210938 7.617188 -9.554688 7.078125 -9.828125 C 6.535156 -10.109375 6.039062 -10.25 5.59375 -10.25 C 5.269531 -10.25 4.953125 -10.207031 4.640625 -10.125 C 4.335938 -10.050781 4.078125 -9.910156 3.859375 -9.703125 C 3.648438 -9.503906 3.546875 -9.207031 3.546875 -8.8125 C 3.554688 -8.269531 3.800781 -7.882812 4.28125 -7.65625 C 4.757812 -7.425781 5.351562 -7.222656 6.0625 -7.046875 C 6.6875 -6.878906 7.289062 -6.671875 7.875 -6.421875 C 8.46875 -6.171875 8.957031 -5.804688 9.34375 -5.328125 C 9.726562 -4.847656 9.921875 -4.175781 9.921875 -3.3125 C 9.921875 -2.570312 9.710938 -1.9375 9.296875 -1.40625 C 8.878906 -0.875 8.34375 -0.46875 7.6875 -0.1875 C 7.03125 0.09375 6.335938 0.234375 5.609375 0.234375 C 4.742188 0.234375 3.890625 0.078125 3.046875 -0.234375 C 2.210938 -0.546875 1.5 -1.082031 0.90625 -1.84375 L 2.5 -3.203125 C 2.90625 -2.734375 3.367188 -2.363281 3.890625 -2.09375 C 4.421875 -1.832031 5.0625 -1.703125 5.8125 -1.703125 C 6.101562 -1.703125 6.390625 -1.75 6.671875 -1.84375 C 6.960938 -1.945312 7.207031 -2.109375 7.40625 -2.328125 C 7.613281 -2.546875 7.71875 -2.84375 7.71875 -3.21875 C 7.71875 -3.582031 7.609375 -3.867188 7.390625 -4.078125 C 7.171875 -4.285156 6.878906 -4.453125 6.515625 -4.578125 C 6.148438 -4.703125 5.75 -4.820312 5.3125 -4.9375 C 4.664062 -5.113281 4.023438 -5.332031 3.390625 -5.59375 C 2.765625 -5.863281 2.242188 -6.242188 1.828125 -6.734375 C 1.410156 -7.222656 1.203125 -7.894531 1.203125 -8.75 C 1.203125 -9.457031 1.398438 -10.066406 1.796875 -10.578125 C 2.203125 -11.085938 2.726562 -11.476562 3.375 -11.75 C 4.03125 -12.03125 4.726562 -12.171875 5.46875 -12.171875 C 6.1875 -12.171875 6.960938 -12.019531 7.796875 -11.71875 C 8.628906 -11.414062 9.316406 -10.929688 9.859375 -10.265625 Z M 8.515625 -8.796875 "/></g></g></g><g clip-path="url(#fe1b6a64d6)"><path fill="#000000" d="M 223.242188 171.40625 C 223.015625 171.945312 222.855469 172.34375 222.410156 172.585938 C 218.632812 174.640625 214.878906 176.742188 211.085938 178.765625 C 204.6875 182.1875 198.046875 185.011719 191.007812 186.84375 C 187.601562 187.730469 184.144531 188.34375 180.652344 188.773438 C 176.015625 189.339844 171.367188 189.542969 166.703125 189.429688 C 163.417969 189.351562 160.140625 189.121094 156.871094 188.789062 C 147.683594 187.855469 138.648438 186.09375 129.695312 183.894531 C 121.542969 181.890625 113.433594 179.734375 105.308594 177.621094 C 98.492188 175.851562 91.683594 174.039062 84.792969 172.582031 C 80.5625 171.691406 76.308594 170.902344 72.042969 170.1875 C 69.132812 169.699219 66.195312 169.355469 63.253906 169.066406 C 58.523438 168.597656 53.773438 168.371094 49.015625 168.507812 C 46.410156 168.582031 43.800781 168.691406 41.203125 168.914062 C 33.238281 169.597656 25.449219 171.097656 17.976562 174.027344 C 17.679688 174.144531 17.371094 174.238281 17.015625 174.230469 C 17.410156 174.023438 17.796875 173.804688 18.203125 173.617188 C 22.488281 171.632812 26.933594 170.105469 31.5 168.914062 C 34.574219 168.109375 37.683594 167.449219 40.828125 167.003906 C 43.21875 166.664062 45.628906 166.425781 48.039062 166.257812 C 50.316406 166.101562 52.605469 166.011719 54.882812 166.046875 C 57.910156 166.09375 60.941406 166.210938 63.960938 166.4375 C 68.273438 166.761719 72.5625 167.34375 76.835938 168.042969 C 83.929688 169.210938 90.949219 170.734375 97.917969 172.484375 C 106.28125 174.585938 114.621094 176.777344 122.976562 178.910156 C 129.785156 180.644531 136.617188 182.273438 143.523438 183.554688 C 147.160156 184.226562 150.816406 184.792969 154.484375 185.277344 C 157.644531 185.691406 160.824219 185.992188 164.003906 186.207031 C 167.421875 186.4375 170.851562 186.523438 174.273438 186.292969 C 176.550781 186.140625 178.839844 186.074219 181.101562 185.792969 C 183.753906 185.464844 186.398438 185.019531 189.023438 184.5 C 197.375 182.84375 205.300781 179.9375 212.953125 176.242188 C 216.152344 174.695312 219.367188 173.191406 222.578125 171.667969 C 222.753906 171.585938 222.941406 171.523438 223.242188 171.40625 Z M 223.242188 171.40625 " fill-opacity="1" fill-rule="nonzero"/></g></svg>