<svg width="139" height="139" xmlns="http://www.w3.org/2000/svg" xmlns:xlink="http://www.w3.org/1999/xlink" xml:space="preserve" overflow="hidden"><g transform="translate(-986 -184)"><path d="M1093.19 208.571C1092.88 208.387 1092.54 208.218 1092.21 208.06L1088.29 206.178 1050.08 189.647C1043.75 186.652 1036.19 189.353 1033.2 195.68 1030.2 202.007 1032.9 209.564 1039.23 212.56 1039.39 212.636 1039.55 212.708 1039.72 212.777L1044.79 214.971 1034.63 242.047C1034.05 243.6 1033.51 245.163 1033 246.735 1034.95 246.282 1036.94 246.051 1038.94 246.045 1039.48 246.045 1039.79 246.063 1039.79 246.063L1042.37 246.231C1042.51 245.854 1042.63 245.473 1042.77 245.098L1052.77 218.43 1078.6 229.609 1082.11 221.665C1080.1 220.755 1079.21 218.391 1080.12 216.384 1081.01 214.436 1083.27 213.532 1085.25 214.334L1085.45 214.418C1089.09 216.629 1088.08 221.513 1084.38 231.751 1083.98 232.861 1083.58 233.959 1083.24 234.949L1075.08 257.123C1070.7 268.979 1068.47 281.517 1068.47 294.155L1068.47 305.776 1056.3 300.853C1055.69 303.117 1054.92 305.333 1053.98 307.481 1053.75 308.001 1053.51 308.495 1053.26 308.997L1072.86 316.925 1111.97 300.204 1111.97 253.331C1111.97 238.779 1110.01 218.378 1093.19 208.571ZM1072.2 212.824C1071.61 214.115 1071.25 215.496 1071.12 216.908L1043.23 204.831C1041.22 203.925 1040.33 201.562 1041.23 199.554 1041.88 198.13 1043.29 197.212 1044.85 197.206 1045.45 197.21 1046.03 197.339 1046.57 197.584L1074.29 209.589C1073.43 210.555 1072.72 211.645 1072.19 212.824ZM1103.28 294.476 1077.16 305.642 1077.16 294.16C1077.16 282.549 1079.21 271.028 1083.23 260.134L1091.43 237.874C1091.78 236.837 1092.17 235.777 1092.55 234.709 1094.09 230.802 1095.26 226.76 1096.04 222.635 1100.94 229.336 1103.28 239.354 1103.28 253.331Z"/><path d="M1025.59 315.036C1000.56 327.431 993.745 282.458 1001.71 273.675 1008.93 265.712 1016.97 271.049 1022.96 272.526 1021.73 262.842 1012.87 257.344 1012.79 257.265L1015.33 253.079C1019.06 255.538 1022.2 258.788 1024.52 262.599 1024.99 260.019 1026.19 257.627 1027.97 255.705 1032.16 251.438 1039.46 251.848 1039.46 251.848 1039.46 251.848 1039.87 259.07 1035.6 263.337 1033.15 265.594 1029.98 266.927 1026.65 267.11 1027.29 268.888 1027.7 270.736 1027.89 272.612 1033.96 271.218 1041.92 265.719 1049.31 273.761 1057.27 282.538 1050.54 327.512 1025.59 315.036Z"/></g></svg>