<svg width="147" height="147" xmlns="http://www.w3.org/2000/svg" xmlns:xlink="http://www.w3.org/1999/xlink" xml:space="preserve" overflow="hidden"><g transform="translate(-1130 -179)"><path d="M1213.86 263.678C1215.58 265.354 1215.62 268.11 1213.95 269.834 1213.92 269.864 1213.89 269.893 1213.86 269.923L1206.38 272.385 1205.06 271.066 1207.53 263.591C1209.31 261.899 1212.12 261.938 1213.86 263.678ZM1247.64 218.554 1204.46 261.831 1198.91 278.542 1215.7 273 1258.89 229.819Z"/><path d="M1268.3 215.393 1262.05 209.149C1260.7 207.764 1258.48 207.739 1257.1 209.092 1257.08 209.111 1257.06 209.13 1257.04 209.149L1250.88 215.306 1262.05 226.469 1268.21 220.313C1269.59 219.098 1269.73 216.994 1268.51 215.613 1268.44 215.536 1268.37 215.463 1268.3 215.393Z"/><path d="M1169.81 278.531 1194.07 278.531 1196.1 272.406 1169.81 272.406 1169.81 278.531Z"/><path d="M1169.81 241.781 1217.97 241.781 1224.08 235.656 1169.81 235.656 1169.81 241.781Z"/><path d="M1237.19 258.013 1237.19 304.562 1160.62 304.562 1160.62 209.625 1177.47 209.625 1177.47 218.812 1220.34 218.812 1220.34 209.625 1237.19 209.625 1237.19 222.521 1244.38 215.306 1244.38 215.306 1244.65 215.044 1246.38 213.315 1246.38 206.562C1246.38 203.18 1243.63 200.438 1240.25 200.438L1214.22 200.438 1214.22 197.375C1214.22 193.992 1211.48 191.25 1208.09 191.25L1189.72 191.25C1186.34 191.25 1183.59 193.992 1183.59 197.375L1183.59 200.438 1157.56 200.438C1154.18 200.438 1151.44 203.18 1151.44 206.562L1151.44 307.625C1151.44 311.008 1154.18 313.75 1157.56 313.75L1240.25 313.75C1243.63 313.75 1246.38 311.008 1246.38 307.625L1246.38 248.825ZM1195.64 198.698C1196.5 197.831 1197.68 197.354 1198.91 197.375 1201.44 197.375 1203.5 199.432 1203.5 201.969 1203.5 204.506 1201.44 206.562 1198.91 206.562 1196.37 206.562 1194.31 204.506 1194.31 201.969 1194.29 200.744 1194.77 199.563 1195.64 198.698Z"/><path d="M1169.81 260.156 1199.59 260.156 1205.7 254.031 1169.81 254.031 1169.81 260.156Z"/></g></svg>