<svg width="229" height="229" xmlns="http://www.w3.org/2000/svg" xmlns:xlink="http://www.w3.org/1999/xlink" xml:space="preserve" overflow="hidden"><g transform="translate(-757 -133)"><path d="M811.865 180.708 838.104 180.708 838.104 195.021 904.896 195.021 904.896 180.708 931.135 180.708 931.135 328.604 811.865 328.604 811.865 180.708ZM871.739 161.625C875.555 161.625 878.656 164.965 878.656 168.781 878.656 172.836 875.555 175.938 871.5 175.938 867.445 175.938 864.344 172.836 864.344 168.781 864.344 164.726 867.445 161.625 871.739 161.625ZM797.552 175.938 797.552 333.375C797.552 338.623 801.846 342.917 807.094 342.917L935.906 342.917C941.154 342.917 945.448 338.623 945.448 333.375L945.448 175.938C945.448 170.69 941.154 166.396 935.906 166.396L895.354 166.396 895.354 161.625C895.354 156.377 891.06 152.083 885.812 152.083L857.188 152.083C851.94 152.083 847.646 156.377 847.646 161.625L847.646 166.396 807.094 166.396C801.846 166.396 797.552 170.69 797.552 175.938Z"/><path d="M826.177 214.104 866.729 214.104 866.729 223.646 826.177 223.646Z"/><path d="M826.177 242.729 866.729 242.729 866.729 252.271 826.177 252.271Z"/><path d="M826.177 271.354 866.729 271.354 866.729 280.896 826.177 280.896Z"/><path d="M826.177 299.979 866.729 299.979 866.729 309.521 826.177 309.521Z"/><path d="M883.189 218.398 888.198 213.389 894.4 219.591 910.144 203.847 915.153 208.856 894.4 229.609Z"/><path d="M883.189 247.023 888.198 242.014 894.4 248.216 910.144 232.472 915.153 237.481 894.4 258.234Z"/><path d="M883.189 275.648 888.198 270.639 894.4 276.841 910.144 261.097 915.153 266.106 894.4 286.859Z"/><path d="M883.189 304.273 888.198 299.264 894.4 305.466 910.144 289.722 915.153 294.731 894.4 315.484Z"/></g></svg>