<svg width="269" height="269" xmlns="http://www.w3.org/2000/svg" xmlns:xlink="http://www.w3.org/1999/xlink" xml:space="preserve" overflow="hidden"><g transform="translate(-494 -103)"><path d="M673.333 187.062C673.333 211.823 653.261 231.896 628.5 231.896 603.739 231.896 583.667 211.823 583.667 187.062 583.667 162.302 603.739 142.229 628.5 142.229 653.261 142.229 673.333 162.302 673.333 187.062Z"/><path d="M718.167 332.771 718.167 287.938C718.167 281.212 714.804 274.487 709.2 270.004 696.871 259.917 681.179 253.192 665.487 248.708 654.279 245.346 641.95 243.104 628.5 243.104 616.171 243.104 603.842 245.346 591.513 248.708 575.821 253.192 560.129 261.038 547.8 270.004 542.196 274.487 538.833 281.212 538.833 287.938L538.833 332.771 718.167 332.771Z"/></g></svg>